<?xml version="1.0" encoding="UTF-8" standalone="no"?>
<svg
   version="1.1"
   width="20.004999"
   height="20.002501"
   viewBox="0 0 20.004999 20.002501"
   id="svg307"
   sodipodi:docname="alert-rhombus-outline.svg"
   inkscape:version="1.1 (c68e22c387, 2021-05-23)"
   xmlns:inkscape="http://www.inkscape.org/namespaces/inkscape"
   xmlns:sodipodi="http://sodipodi.sourceforge.net/DTD/sodipodi-0.dtd"
   xmlns="http://www.w3.org/2000/svg"
   xmlns:svg="http://www.w3.org/2000/svg">
  <defs
     id="defs311" />
  <sodipodi:namedview
     id="namedview309"
     pagecolor="#ffffff"
     bordercolor="#666666"
     borderopacity="1.0"
     inkscape:pageshadow="2"
     inkscape:pageopacity="0.0"
     inkscape:pagecheckerboard="0"
     showgrid="false"
     inkscape:zoom="34.666667"
     inkscape:cx="9.9951923"
     inkscape:cy="10.024038"
     inkscape:window-width="1920"
     inkscape:window-height="1017"
     inkscape:window-x="1912"
     inkscape:window-y="-8"
     inkscape:window-maximized="1"
     inkscape:current-layer="svg307" />
  <path
     d="m 10.0025,0 c -0.5,0 -1,0.19 -1.41,0.59 l -8,8 c -0.79,0.78 -0.79,2.04 0,2.82 l 8,8 c 0.78,0.79 2.04,0.79 2.82,0 l 8,-8 c 0.79,-0.78 0.79,-2.04 0,-2.82 l -8,-8 C 11.0025,0.19 10.5025,0 10.0025,0 m 0,2 8,8 -8,8 -8,-8 m 7,-5 v 6 h 2 V 5 m -2,8 v 2 h 2 v -2 z"
     id="path305" />
</svg>
