<?xml version="1.0" encoding="UTF-8" standalone="no"?>
<svg
   xmlns:dc="http://purl.org/dc/elements/1.1/"
   xmlns:cc="http://creativecommons.org/ns#"
   xmlns:rdf="http://www.w3.org/1999/02/22-rdf-syntax-ns#"
   xmlns:svg="http://www.w3.org/2000/svg"
   xmlns="http://www.w3.org/2000/svg"
   xmlns:sodipodi="http://sodipodi.sourceforge.net/DTD/sodipodi-0.dtd"
   xmlns:inkscape="http://www.inkscape.org/namespaces/inkscape"
   version="1.1"
   width="22"
   height="20"
   viewBox="0 0 22 20"
   id="svg2628"
   sodipodi:docname="book-open-page-variant.svg"
   inkscape:version="1.0.2-2 (e86c870879, 2021-01-15)">
  <metadata
     id="metadata2634">
    <rdf:RDF>
      <cc:Work
         rdf:about="">
        <dc:format>image/svg+xml</dc:format>
        <dc:type
           rdf:resource="http://purl.org/dc/dcmitype/StillImage" />
      </cc:Work>
    </rdf:RDF>
  </metadata>
  <defs
     id="defs2632" />
  <sodipodi:namedview
     pagecolor="#ffffff"
     bordercolor="#666666"
     borderopacity="1"
     objecttolerance="10"
     gridtolerance="10"
     guidetolerance="10"
     inkscape:pageopacity="0"
     inkscape:pageshadow="2"
     inkscape:window-width="1920"
     inkscape:window-height="1017"
     id="namedview2630"
     showgrid="false"
     inkscape:zoom="12.521683"
     inkscape:cx="-0.85870117"
     inkscape:cy="24.409261"
     inkscape:window-x="-8"
     inkscape:window-y="-8"
     inkscape:window-maximized="1"
     inkscape:current-layer="svg2628" />
  <path
     d="m 18,0 -5,4.5 v 11 L 18,11 V 0 M 5.5,3 C 3.55,3 1.45,3.4 0,4.5 v 14.66 c 0,0.25 0.25,0.5 0.5,0.5 0.1,0 0.15,-0.07 0.25,-0.07 1.35,-0.65 3.3,-1.09 4.75,-1.09 1.95,0 4.05,0.4 5.5,1.5 1.35,-0.85 3.8,-1.5 5.5,-1.5 1.65,0 3.35,0.31 4.75,1.06 0.1,0.05 0.15,0.03 0.25,0.03 0.25,0 0.5,-0.25 0.5,-0.5 V 4.5 C 21.4,4.05 20.75,3.75 20,3.5 V 17 c -1.1,-0.35 -2.3,-0.5 -3.5,-0.5 -1.7,0 -4.15,0.65 -5.5,1.5 V 4.5 C 9.55,3.4 7.45,3 5.5,3 Z"
     id="path2626" />
</svg>
