<?xml version="1.0" encoding="UTF-8" standalone="no"?>
<svg
   xmlns:dc="http://purl.org/dc/elements/1.1/"
   xmlns:cc="http://creativecommons.org/ns#"
   xmlns:rdf="http://www.w3.org/1999/02/22-rdf-syntax-ns#"
   xmlns:svg="http://www.w3.org/2000/svg"
   xmlns="http://www.w3.org/2000/svg"
   xmlns:sodipodi="http://sodipodi.sourceforge.net/DTD/sodipodi-0.dtd"
   xmlns:inkscape="http://www.inkscape.org/namespaces/inkscape"
   version="1.1"
   width="16.84"
   height="20"
   viewBox="0 0 16.84 20"
   id="svg865"
   sodipodi:docname="clippy.svg"
   inkscape:version="1.0.2-2 (e86c870879, 2021-01-15)">
  <metadata
     id="metadata871">
    <rdf:RDF>
      <cc:Work
         rdf:about="">
        <dc:format>image/svg+xml</dc:format>
        <dc:type
           rdf:resource="http://purl.org/dc/dcmitype/StillImage" />
        <dc:title></dc:title>
      </cc:Work>
    </rdf:RDF>
  </metadata>
  <defs
     id="defs869" />
  <sodipodi:namedview
     pagecolor="#ffffff"
     bordercolor="#666666"
     borderopacity="1"
     objecttolerance="10"
     gridtolerance="10"
     guidetolerance="10"
     inkscape:pageopacity="0"
     inkscape:pageshadow="2"
     inkscape:window-width="1500"
     inkscape:window-height="1040"
     id="namedview867"
     showgrid="false"
     fit-margin-top="0"
     fit-margin-left="2"
     fit-margin-right="2"
     fit-margin-bottom="0"
     inkscape:zoom="34.458333"
     inkscape:cx="9.17"
     inkscape:cy="10"
     inkscape:window-x="2050"
     inkscape:window-y="0"
     inkscape:window-maximized="0"
     inkscape:current-layer="svg865" />
  <path
     d="M 12.17,13.5 A 2.5,2.5 0 0 1 9.67,16 2.5,2.5 0 0 1 7.17,13.5 V 11.75 A 0.75,0.75 0 0 1 7.92,11 0.75,0.75 0 0 1 8.67,11.75 v 1.75 a 1,1 0 0 0 1,1 1,1 0 0 0 1,-1 V 9.89 C 9.8,9.61 9.17,8.87 9.17,8 c 0,-1.1 1,-2 2.25,-2 1.25,0 2.25,0.9 2.25,2 0,0.87 -0.63,1.61 -1.5,1.89 V 13.5 M 5.42,6 c 1.25,0 2.25,0.9 2.25,2 0,0.87 -0.63,1.61 -1.5,1.89 v 5.36 a 3.25,3.25 0 0 0 3.25,3.25 3.25,3.25 0 0 0 3.25,-3.25 v -3.5 a 0.75,0.75 0 0 1 0.75,-0.75 0.75,0.75 0 0 1 0.75,0.75 v 3.5 A 4.75,4.75 0 0 1 9.42,20 4.75,4.75 0 0 1 4.67,15.25 V 9.89 C 3.8,9.61 3.17,8.87 3.17,8 c 0,-1.1 1,-2 2.25,-2 M 7.23,4.13 6.8,5.59 C 6.39,5.37 5.92,5.25 5.42,5.25 4.51,5.25 3.7,5.65 3.2,6.27 L 2,5.37 C 2.63,4.57 3.58,4 4.67,3.81 V 3.75 A 3.75,3.75 0 0 1 8.42,0 3.75,3.75 0 0 1 12.17,3.75 v 0.06 c 1.09,0.19 2.04,0.76 2.67,1.56 l -1.2,0.9 c -0.5,-0.62 -1.31,-1.02 -2.22,-1.02 -0.5,0 -0.97,0.12 -1.38,0.34 L 9.61,4.13 C 9.94,4 10.3,3.87 10.67,3.81 V 3.75 C 10.67,2.5 9.67,1.5 8.42,1.5 7.17,1.5 6.17,2.5 6.17,3.75 V 3.81 C 6.54,3.87 6.9,4 7.23,4.13 m 4.19,3.12 c -0.55,0 -1,0.34 -1,0.75 0,0.41 0.45,0.75 1,0.75 0.55,0 1,-0.34 1,-0.75 0,-0.41 -0.45,-0.75 -1,-0.75 m -6,0 c -0.55,0 -1,0.34 -1,0.75 0,0.41 0.45,0.75 1,0.75 0.55,0 1,-0.34 1,-0.75 0,-0.41 -0.45,-0.75 -1,-0.75 z"
     id="path863" />
</svg>
