<?xml version="1.0" encoding="UTF-8" standalone="no"?>
<svg
   xmlns:dc="http://purl.org/dc/elements/1.1/"
   xmlns:cc="http://creativecommons.org/ns#"
   xmlns:rdf="http://www.w3.org/1999/02/22-rdf-syntax-ns#"
   xmlns:svg="http://www.w3.org/2000/svg"
   xmlns="http://www.w3.org/2000/svg"
   xmlns:sodipodi="http://sodipodi.sourceforge.net/DTD/sodipodi-0.dtd"
   xmlns:inkscape="http://www.inkscape.org/namespaces/inkscape"
   version="1.1"
   width="20"
   height="20"
   viewBox="0 0 20 20"
   id="svg1446"
   sodipodi:docname="help-circle.svg"
   inkscape:version="1.0.2-2 (e86c870879, 2021-01-15)">
  <metadata
     id="metadata1452">
    <rdf:RDF>
      <cc:Work
         rdf:about="">
        <dc:format>image/svg+xml</dc:format>
        <dc:type
           rdf:resource="http://purl.org/dc/dcmitype/StillImage" />
      </cc:Work>
    </rdf:RDF>
  </metadata>
  <defs
     id="defs1450" />
  <sodipodi:namedview
     pagecolor="#ffffff"
     bordercolor="#666666"
     borderopacity="1"
     objecttolerance="10"
     gridtolerance="10"
     guidetolerance="10"
     inkscape:pageopacity="0"
     inkscape:pageshadow="2"
     inkscape:window-width="1920"
     inkscape:window-height="1017"
     id="namedview1448"
     showgrid="false"
     inkscape:zoom="35.416667"
     inkscape:cx="10"
     inkscape:cy="10"
     inkscape:window-x="-8"
     inkscape:window-y="-8"
     inkscape:window-maximized="1"
     inkscape:current-layer="svg1446" />
  <path
     d="m 13.07,9.25 -0.9,0.92 C 11.45,10.89 11,11.5 11,13 H 9 V 12.5 C 9,11.39 9.45,10.39 10.17,9.67 L 11.41,8.41 C 11.78,8.05 12,7.55 12,7 12,5.89 11.1,5 10,5 A 2,2 0 0 0 8,7 H 6 a 4,4 0 0 1 4,-4 4,4 0 0 1 4,4 c 0,0.88 -0.36,1.67 -0.93,2.25 M 11,17 H 9 v -2 h 2 M 10,0 A 10,10 0 0 0 0,10 10,10 0 0 0 10,20 10,10 0 0 0 20,10 C 20,4.47 15.5,0 10,0 Z"
     id="path1444" />
</svg>
