<?xml version="1.0" encoding="UTF-8" standalone="no"?>
<svg
   xmlns:dc="http://purl.org/dc/elements/1.1/"
   xmlns:cc="http://creativecommons.org/ns#"
   xmlns:rdf="http://www.w3.org/1999/02/22-rdf-syntax-ns#"
   xmlns:svg="http://www.w3.org/2000/svg"
   xmlns="http://www.w3.org/2000/svg"
   xmlns:sodipodi="http://sodipodi.sourceforge.net/DTD/sodipodi-0.dtd"
   xmlns:inkscape="http://www.inkscape.org/namespaces/inkscape"
   version="1.1"
   width="20.004999"
   height="20.002501"
   viewBox="0 0 20.004999 20.002501"
   id="svg865"
   sodipodi:docname="help-rhombus.svg"
   inkscape:version="1.0.2-2 (e86c870879, 2021-01-15)">
  <metadata
     id="metadata871">
    <rdf:RDF>
      <cc:Work
         rdf:about="">
        <dc:format>image/svg+xml</dc:format>
        <dc:type
           rdf:resource="http://purl.org/dc/dcmitype/StillImage" />
      </cc:Work>
    </rdf:RDF>
  </metadata>
  <defs
     id="defs869" />
  <sodipodi:namedview
     pagecolor="#ffffff"
     bordercolor="#666666"
     borderopacity="1"
     objecttolerance="10"
     gridtolerance="10"
     guidetolerance="10"
     inkscape:pageopacity="0"
     inkscape:pageshadow="2"
     inkscape:window-width="1920"
     inkscape:window-height="1017"
     id="namedview867"
     showgrid="false"
     inkscape:zoom="35.416667"
     inkscape:cx="10.0025"
     inkscape:cy="10"
     inkscape:window-x="-8"
     inkscape:window-y="-8"
     inkscape:window-maximized="1"
     inkscape:current-layer="svg865" />
  <path
     d="m 10.0025,0 c -0.5,0 -1,0.19 -1.41,0.59 l -8,8 c -0.79,0.78 -0.79,2.04 0,2.82 l 8,8 c 0.78,0.79 2.04,0.79 2.82,0 l 8,-8 c 0.79,-0.78 0.79,-2.04 0,-2.82 l -8,-8 C 11.0025,0.19 10.5025,0 10.0025,0 m 0,4.95 c 2.7,0.11 3.87,2.83 2.28,4.86 -0.42,0.5 -1.09,0.83 -1.43,1.26 -0.35,0.43 -0.35,0.93 -0.35,1.43 h -1.5 c 0,-0.85 0,-1.56 0.35,-2.06 0.33,-0.5 1,-0.8 1.42,-1.13 1.23,-1.13 0.91,-2.72 -0.77,-2.85 -0.82,0 -1.5,0.67 -1.5,1.51 h -1.5 c 0,-1.67 1.35,-3.02 3,-3.02 m -1,8.55 h 1.5 V 15 h -1.5 z"
     id="path863" />
</svg>
