<?xml version="1.0" encoding="UTF-8" standalone="no"?>
<svg
   version="1.1"
   width="20"
   height="20"
   viewBox="0 0 20 20"
   id="svg119"
   sodipodi:docname="information-outline.svg"
   inkscape:version="1.1 (c68e22c387, 2021-05-23)"
   xmlns:inkscape="http://www.inkscape.org/namespaces/inkscape"
   xmlns:sodipodi="http://sodipodi.sourceforge.net/DTD/sodipodi-0.dtd"
   xmlns="http://www.w3.org/2000/svg"
   xmlns:svg="http://www.w3.org/2000/svg">
  <defs
     id="defs123" />
  <sodipodi:namedview
     id="namedview121"
     pagecolor="#ffffff"
     bordercolor="#666666"
     borderopacity="1.0"
     inkscape:pageshadow="2"
     inkscape:pageopacity="0.0"
     inkscape:pagecheckerboard="0"
     showgrid="false"
     inkscape:zoom="34.666667"
     inkscape:cx="9.9951923"
     inkscape:cy="10.024038"
     inkscape:window-width="1920"
     inkscape:window-height="1017"
     inkscape:window-x="1912"
     inkscape:window-y="-8"
     inkscape:window-maximized="1"
     inkscape:current-layer="svg119" />
  <path
     d="m 9,7 h 2 V 5 H 9 m 1,13 C 5.59,18 2,14.41 2,10 2,5.59 5.59,2 10,2 c 4.41,0 8,3.59 8,8 0,4.41 -3.59,8 -8,8 M 10,0 A 10,10 0 0 0 0,10 10,10 0 0 0 10,20 10,10 0 0 0 20,10 10,10 0 0 0 10,0 M 9,15 h 2 V 9 H 9 Z"
     id="path117" />
</svg>
