<?xml version="1.0" encoding="UTF-8" standalone="no"?>
<svg
   xmlns:dc="http://purl.org/dc/elements/1.1/"
   xmlns:cc="http://creativecommons.org/ns#"
   xmlns:rdf="http://www.w3.org/1999/02/22-rdf-syntax-ns#"
   xmlns:svg="http://www.w3.org/2000/svg"
   xmlns="http://www.w3.org/2000/svg"
   xmlns:sodipodi="http://sodipodi.sourceforge.net/DTD/sodipodi-0.dtd"
   xmlns:inkscape="http://www.inkscape.org/namespaces/inkscape"
   version="1.1"
   width="18.485001"
   height="18.485001"
   viewBox="0 0 18.485001 18.485001"
   id="svg1035"
   sodipodi:docname="link-variant.svg"
   inkscape:version="1.0.2-2 (e86c870879, 2021-01-15)">
  <metadata
     id="metadata1041">
    <rdf:RDF>
      <cc:Work
         rdf:about="">
        <dc:format>image/svg+xml</dc:format>
        <dc:type
           rdf:resource="http://purl.org/dc/dcmitype/StillImage" />
        <dc:title></dc:title>
      </cc:Work>
    </rdf:RDF>
  </metadata>
  <defs
     id="defs1039" />
  <sodipodi:namedview
     pagecolor="#ffffff"
     bordercolor="#666666"
     borderopacity="1"
     objecttolerance="10"
     gridtolerance="10"
     guidetolerance="10"
     inkscape:pageopacity="0"
     inkscape:pageshadow="2"
     inkscape:window-width="1500"
     inkscape:window-height="1040"
     id="namedview1037"
     showgrid="false"
     fit-margin-top="0"
     fit-margin-left="0"
     fit-margin-right="0"
     fit-margin-bottom="0"
     inkscape:zoom="12.182861"
     inkscape:cx="13.032356"
     inkscape:cy="23.610579"
     inkscape:window-x="1998"
     inkscape:window-y="0"
     inkscape:window-maximized="0"
     inkscape:current-layer="svg1035" />
  <path
     d="m 7.8325,10.6525 c 0.41,0.39 0.41,1.03 0,1.42 -0.39,0.39 -1.03,0.39 -1.42,0 -1.95,-1.95 -1.95,-5.12 0,-7.07 v 0 l 3.54,-3.54 c 1.95,-1.95 5.12,-1.95 7.07,0 1.95,1.95 1.95,5.12 0,7.07 l -1.49,1.49 c 0.01,-0.82 -0.12,-1.64 -0.4,-2.42 l 0.47,-0.48 c 1.18,-1.17 1.18,-3.07 0,-4.24 -1.17,-1.18 -3.07,-1.18 -4.24,0 l -3.53,3.53 c -1.18,1.17 -1.18,3.07 0,4.24 m 2.82,-4.24 c 0.39,-0.39 1.03,-0.39 1.42,0 1.95,1.95 1.95,5.12 0,7.07 v 0 l -3.54,3.54 c -1.95,1.95 -5.12,1.95 -7.07,0 -1.95,-1.95 -1.95,-5.12 0,-7.07 l 1.49,-1.49 c -0.01,0.82 0.12,1.64 0.4,2.43 l -0.47,0.47 c -1.18,1.17 -1.18,3.07 0,4.24 1.17,1.18 3.07,1.18 4.24,0 l 3.53,-3.53 c 1.18,-1.17 1.18,-3.07 0,-4.24 -0.41,-0.39 -0.41,-1.03 0,-1.42 z"
     id="path1033" />
</svg>
