<?xml version="1.0" encoding="UTF-8" standalone="no"?>
<svg
   xmlns:dc="http://purl.org/dc/elements/1.1/"
   xmlns:cc="http://creativecommons.org/ns#"
   xmlns:rdf="http://www.w3.org/1999/02/22-rdf-syntax-ns#"
   xmlns:svg="http://www.w3.org/2000/svg"
   xmlns="http://www.w3.org/2000/svg"
   xmlns:sodipodi="http://sodipodi.sourceforge.net/DTD/sodipodi-0.dtd"
   xmlns:inkscape="http://www.inkscape.org/namespaces/inkscape"
   version="1.1"
   width="110.8068"
   height="135.28032"
   viewBox="0 0 110.8068 135.28032"
   id="svg3214"
   sodipodi:docname="logo.svg"
   inkscape:version="1.0.2-2 (e86c870879, 2021-01-15)">
  <sodipodi:namedview
     pagecolor="#ffffff"
     bordercolor="#666666"
     borderopacity="1"
     objecttolerance="10"
     gridtolerance="10"
     guidetolerance="10"
     inkscape:pageopacity="0"
     inkscape:pageshadow="2"
     inkscape:window-width="1920"
     inkscape:window-height="1017"
     id="namedview850"
     showgrid="false"
     fit-margin-top="0"
     fit-margin-left="0"
     fit-margin-right="0"
     fit-margin-bottom="0"
     inkscape:zoom="3.6548582"
     inkscape:cx="10.842938"
     inkscape:cy="56.213502"
     inkscape:window-x="1912"
     inkscape:window-y="-8"
     inkscape:window-maximized="1"
     inkscape:current-layer="svg3214"
     inkscape:document-rotation="0" />
  <metadata
     id="metadata3220">
    <rdf:RDF>
      <cc:Work
         rdf:about="">
        <dc:format>image/svg+xml</dc:format>
        <dc:type
           rdf:resource="http://purl.org/dc/dcmitype/StillImage" />
        <dc:title></dc:title>
      </cc:Work>
    </rdf:RDF>
  </metadata>
  <defs
     id="defs834" />
  <path
     d="m 110.48412,17.13 v -2 l -1.48,-1.3 C 108.42412,13.27 93.624122,0 58.064122,0 h -0.21 c -18.85,0.9 -29.94,5.57 -37.46,9.54 l -2.39,1.26 v 2.69 c 0,0.35 -0.13,34.95 -0.13,55.9 0,27.61 21.77,41.87 31.13,46.72 a 13.85,13.85 0 0 0 13.1,-0.06 c 9.34,-5.17 31.07,-19.73 31.07,-43.28 V 25.12 l -2.26,-1.29 c -0.48,-0.27 -11.92,-6.68 -32.62,-6.13 a 46.18,46.18 0 0 0 -5,0.43 v 9.07 a 39.72,39.72 0 0 1 5.26,-0.53 c 13,-0.34 21.8,2.38 25.67,3.93 v 42.17 c 0,18.77 -18.49,31 -26.44,35.43 a 4.9,4.9 0 0 1 -4.63,-0.06 c -22.89,-11.84 -26.31,-29.36 -26.31,-38.75 0,-17.48 0.09,-44.49 0.12,-53.12 6.61,-3.21 16.04,-6.56 31.21,-7.27 25.72,0 39.16,7.53 43.339998,10.38 0,6.18 0,24.57 0.26,47.08 0.36,37 -31.559998,55.77 -42.769998,59.42 -2.18,0.71 -4.37,0.49 -7.19,-0.1 -11.12,-2.33 -43.2300001,-21.42 -42.8100001,-59.34 0.29,-27.51 0.38,-31.86 0.38,-31.9 a 4.48,4.48 0 0 0 -4.38,-4.54 h -0.1 a 4.48,4.48 0 0 0 -4.51,4.35 c 0,0.17 -0.09,4.35 -0.39,32 -0.43,40.27 32.8900001,64.65 50.0000001,68.2 a 29.86,29.86 0 0 0 6.09,0.73 18.08,18.08 0 0 0 5.71,-0.89 c 19.12,-6.23 49.329998,-30.21 48.999998,-68 -0.33,-27.65 -0.32,-49.05 -0.32,-49.26 z"
     id="path942" />
  <path
     d="m 50.924122,36.19 h -18.13 l 18.13,-18.13 z"
     id="path944" />
</svg>
