<?xml version="1.0" encoding="UTF-8" standalone="no"?>
<svg
   xmlns:dc="http://purl.org/dc/elements/1.1/"
   xmlns:cc="http://creativecommons.org/ns#"
   xmlns:rdf="http://www.w3.org/1999/02/22-rdf-syntax-ns#"
   xmlns:svg="http://www.w3.org/2000/svg"
   xmlns="http://www.w3.org/2000/svg"
   xmlns:sodipodi="http://sodipodi.sourceforge.net/DTD/sodipodi-0.dtd"
   xmlns:inkscape="http://www.inkscape.org/namespaces/inkscape"
   version="1.1"
   width="20"
   height="20"
   viewBox="0 0 20 20"
   id="svg3189"
   sodipodi:docname="message-question.svg"
   inkscape:version="1.0.2-2 (e86c870879, 2021-01-15)">
  <metadata
     id="metadata3195">
    <rdf:RDF>
      <cc:Work
         rdf:about="">
        <dc:format>image/svg+xml</dc:format>
        <dc:type
           rdf:resource="http://purl.org/dc/dcmitype/StillImage" />
      </cc:Work>
    </rdf:RDF>
  </metadata>
  <defs
     id="defs3193" />
  <sodipodi:namedview
     pagecolor="#ffffff"
     bordercolor="#666666"
     borderopacity="1"
     objecttolerance="10"
     gridtolerance="10"
     guidetolerance="10"
     inkscape:pageopacity="0"
     inkscape:pageshadow="2"
     inkscape:window-width="1920"
     inkscape:window-height="1017"
     id="namedview3191"
     showgrid="false"
     inkscape:zoom="35.416667"
     inkscape:cx="10"
     inkscape:cy="10"
     inkscape:window-x="-8"
     inkscape:window-y="-8"
     inkscape:window-maximized="1"
     inkscape:current-layer="svg3189" />
  <path
     d="M 18,0 H 2 C 0.9,0 0,0.9 0,2 v 18 l 4,-4 h 14 c 1.1,0 2,-0.9 2,-2 V 2 C 20,0.9 19.1,0 18,0 M 11,12 H 9 v -2 h 2 v 2 M 12.8,7 C 12.5,7.4 12.1,7.6 11.7,7.8 11.4,8 11.3,8.1 11.2,8.3 11,8.5 11,8.7 11,9 H 9 C 9,8.5 9.1,8.2 9.3,7.9 9.5,7.7 9.9,7.4 10.4,7.1 10.7,7 10.9,6.8 11,6.6 11.1,6.4 11.2,6.1 11.2,5.9 11.2,5.6 11.1,5.4 10.9,5.2 10.7,5 10.4,4.9 10.1,4.9 9.8,4.9 9.6,5 9.4,5.1 9.2,5.2 9.1,5.4 9.1,5.7 h -2 C 7.2,5 7.5,4.4 8,4 8.5,3.6 9.2,3.5 10.1,3.5 c 0.9,0 1.7,0.2 2.2,0.6 0.5,0.4 0.8,1 0.8,1.7 0.1,0.4 0,0.8 -0.3,1.2 z"
     id="path3187" />
</svg>
