<?xml version="1.0" encoding="UTF-8" standalone="no"?>
<svg
   xmlns:dc="http://purl.org/dc/elements/1.1/"
   xmlns:cc="http://creativecommons.org/ns#"
   xmlns:rdf="http://www.w3.org/1999/02/22-rdf-syntax-ns#"
   xmlns:svg="http://www.w3.org/2000/svg"
   xmlns="http://www.w3.org/2000/svg"
   xmlns:sodipodi="http://sodipodi.sourceforge.net/DTD/sodipodi-0.dtd"
   xmlns:inkscape="http://www.inkscape.org/namespaces/inkscape"
   version="1.1"
   width="20"
   height="20"
   viewBox="0 0 20 20"
   id="svg3770"
   sodipodi:docname="message-question-outline.svg"
   inkscape:version="1.0.2-2 (e86c870879, 2021-01-15)">
  <metadata
     id="metadata3776">
    <rdf:RDF>
      <cc:Work
         rdf:about="">
        <dc:format>image/svg+xml</dc:format>
        <dc:type
           rdf:resource="http://purl.org/dc/dcmitype/StillImage" />
      </cc:Work>
    </rdf:RDF>
  </metadata>
  <defs
     id="defs3774" />
  <sodipodi:namedview
     pagecolor="#ffffff"
     bordercolor="#666666"
     borderopacity="1"
     objecttolerance="10"
     gridtolerance="10"
     guidetolerance="10"
     inkscape:pageopacity="0"
     inkscape:pageshadow="2"
     inkscape:window-width="941"
     inkscape:window-height="480"
     id="namedview3772"
     showgrid="false"
     inkscape:zoom="35.416667"
     inkscape:cx="10"
     inkscape:cy="10"
     inkscape:window-x="0"
     inkscape:window-y="0"
     inkscape:window-maximized="0"
     inkscape:current-layer="svg3770" />
  <path
     d="M 18,0 H 2 C 0.9,0 0,0.9 0,2 v 18 l 4,-4 h 14 c 1.1,0 2,-0.9 2,-2 V 2 C 20,0.9 19.1,0 18,0 m 0,14 H 3.2 L 2,15.2 V 2 H 18 V 14 M 10.2,3.5 C 9.3,3.5 8.6,3.7 8.1,4 7.5,4.4 7.2,5 7.3,5.7 h 2 C 9.3,5.4 9.4,5.2 9.6,5.1 9.8,5 10,4.9 10.3,4.9 c 0.3,0 0.6,0.1 0.8,0.3 0.2,0.2 0.3,0.4 0.3,0.7 0,0.3 -0.1,0.5 -0.2,0.7 C 11,6.8 10.8,7 10.6,7.1 10.1,7.4 9.7,7.7 9.5,7.9 9.1,8.2 9,8.5 9,9 h 2 C 11,8.7 11.1,8.5 11.1,8.3 11.2,8.1 11.4,8 11.6,7.8 12.1,7.6 12.4,7.3 12.7,6.9 13,6.5 13.1,6.1 13.1,5.7 13.1,5 12.8,4.4 12.3,4 11.9,3.7 11.1,3.5 10.2,3.5 M 9,10 v 2 h 2 v -2 z"
     id="path3768" />
</svg>
